<svg xmlns="http://www.w3.org/2000/svg" xmlns:xlink="http://www.w3.org/1999/xlink" width="480.562" height="301.905" viewBox="0 0 480.562 301.905">
  <defs>
    <clipPath id="clip-path">
      <rect id="Rectangle_70" data-name="Rectangle 70" width="480.562" height="301.905" transform="translate(0 0)" fill="#fff"/>
    </clipPath>
  </defs>
  <g id="Group_40" data-name="Group 40" transform="translate(0 -0.003)" opacity="0.3">
    <g id="Group_39" data-name="Group 39" transform="translate(0 0.003)" clip-path="url(#clip-path)">
      <path id="Path_27" data-name="Path 27" d="M479.976,301.908a.581.581,0,0,1-.321-.1c-.122-.08-12.284-8.059-19.249-9.893-1.456-.383-7.532-.722-13.408-1.049-7.134-.4-14.51-.808-16.841-1.4-3.548-.9-5.6-3.254-7.766-5.745-2.322-2.666-4.723-5.423-9.255-6.612-4.617-1.211-11.361-1.867-18.5-2.562-7.084-.69-14.408-1.4-19.85-2.718-3.516-.85-4.313-2.185-5.236-3.731-1.242-2.081-2.942-4.931-13.565-8.412a54.278,54.278,0,0,1-8.958-3.979,47.276,47.276,0,0,0-9.612-4.109c-4.851-1.406-11.135-.478-17.211.419-5.629.831-10.946,1.617-15.331.724-3.779-.769-9.443-4.206-14.922-7.529-5.043-3.059-9.806-5.948-12.761-6.61-2.756-.617-7.676,0-12.017.547-3.589.451-6.978.877-8.91.593-9.081-1.336-15.318-2.444-19.067-3.387-3.1-.778-4.1-1.339-4.661-1.941-.5-.538-1.084-1.181-1.7-1.861-3.067-3.374-7.7-8.472-10.743-10.373a8.535,8.535,0,0,0-4.264-.863c-2.985-.112-6.368-.24-8.3-5.238a38.934,38.934,0,0,1-1.8-6.427c-.746-3.53-1.239-5.861-4.73-8.188-3.043-2.029-9.027-2.029-14.306-2.029-4.177,0-7.784,0-9.608-.965-2.106-1.115-3.832-3.673-5.5-6.148-1.524-2.259-3.1-4.6-4.679-5.227-2.043-.817-6.274-1.2-12.575-1.125l-.47,0c-.8,0-1.477-.952-2.267-3.182-.314-.888-.569-1.765-.717-2.306-.173.032-.382.067-.619.1v4.1a1.629,1.629,0,0,1-.972,1.332c-1.809,1.08-6.154,1.772-9.617,2.058-1.694.14-7.377.515-9.352-.548a1.4,1.4,0,0,1-.816-1.206c-.074-1.747,3.112-4.19,8.276-7.564.667-.436,1.357-.887,1.48-1,.5-.5.826-.635,1.45-.124a9.219,9.219,0,0,0,2.448,1.4,12.786,12.786,0,0,0,5.933.522v-2.311c0-.223.069-.7.24-1.849.7-4.7,2.827-19.016.7-30.62-2.594-14.153-2.549-22.663-1.636-31.806a73.912,73.912,0,0,1,1.711-9.5c1.023-4.457,1.831-7.978.865-11.7q-.188-.727-.377-1.41c-1.649,1.857-5.187,3.883-12.727,4.638a22.828,22.828,0,0,1-13.9-2.869,17.961,17.961,0,0,1-5.588-4.856c-1.873,2.981-5.484,8.773-9.09,14.8C100.227,117.213,98.7,121.3,98.6,122.395c-.194,2.04,1.9,9.488,5.465,19.437,3.206,8.948,6.506,16.817,7.675,18.3,2.315,2.946,8.455,1.891,9.663,1.649l.017,0a2.9,2.9,0,0,0-.215-2.239c-1.126-2.928-6.516-22.271-7.476-28.034a35.315,35.315,0,0,0-.849-3.949.973.973,0,0,1-.322-.059c-.7-.251-.7-1.145-.7-1.439,0-.872.475-1.006.679-1.023.437-.035.743.312,1.01.9a20.26,20.26,0,0,0,2.167-2.345c1.19-1.446,2.994-3.229,4.9-5.118,1.627-1.61,3.31-3.274,4.536-4.671a10.029,10.029,0,0,0,1.743-2.425c-1.489-5.208-2.79-9.628-3.4-11.495l-.3-.852-.075-.217c-.005-.015-.01-.03-.014-.045l0-.012h0a.58.58,0,0,1,.351-.76.59.59,0,0,1,.755.382l.176.493c.055.155.125.362.208.616,1.6,4.618,3.395,10.023,3.545,11.382a1.585,1.585,0,0,1-.034.514c2.632,9.216,5.8,20.732,6.771,25.015.44,1.949,1.042,4.2,1.679,6.584,1.7,6.352,3.81,14.258,4.152,21.438.239,5.023-.016,11.3-2.593,12.685-.65.349-1.736.536-3.222-.554a33.415,33.415,0,0,1-2.751-2.327c-2.125-1.937-3.961-3.609-6.909-3.609-1.163,0-2.07.048-2.913.12a13.8,13.8,0,0,1-1.82.7,53.161,53.161,0,0,1-5.584,1.375c-3.767.743-8.832,1.443-11.753,1.182-.975-.087-2.293-.317-2.471-1.295a1.779,1.779,0,0,1,.12-1.014,1.868,1.868,0,0,1-1.345-.75,1.31,1.31,0,0,1,.144-1.447c.691-1.086,2.711-1.706,4.848-2.363a25.084,25.084,0,0,0,2.88-1c.975-.448,1.044-.742,1.048-.8s-.029-.7-2.715-1.977c-6.112-2.895-9.259-2.841-11.786-2.8a14.561,14.561,0,0,1-3.2-.182,11.942,11.942,0,0,1-3.787-1.8,21.3,21.3,0,0,0-2.833-1.565c-.377,4.384-.58,4.622-.734,4.8a.612.612,0,0,1-.7.179c-.435-.172-.472-.646-.506-1.54-.024-.632-.028-1.567-.014-2.78q.007-.578.02-1.245a7.84,7.84,0,0,0-3.508.216c-1.387.388-2.677.847-3.924,1.291-3.944,1.4-7.669,2.729-13.137,1.27a40.173,40.173,0,0,1-8.431-3.514c-1.831-.953-3.56-1.853-4.108-1.46a2.566,2.566,0,0,1-.814.282c-2.731.708-5.859,1.969-5.8,5.464.03,1.786.969,4.225,2.057,7.049,1.827,4.744,4.1,10.649,2.926,16.257-.351,1.675.667,6.02,1.651,10.222,1.2,5.113,2.435,10.4,1.759,12.765-1.985,6.95-5.759,13.077-8.515,17.551-2.177,3.534-4.057,6.586-3.6,7.8.064.17.212.415.757.582,1.006.31,2.872-1.02,5.032-2.56,3.328-2.372,7.887-5.621,13.432-5.929,1.7-.094,3.5-.071,5.413-.047,6.84.087,13.912.177,15.595-5.286.007-.118-.093-.78-2.376-3.242-1.582-1.705-3.759-3.806-6.063-6.03-4.6-4.441-9.817-9.473-11.654-12.739-5.8-10.315-1.682-16.074.532-19.168.246-.344.479-.669.663-.954,2.552-3.933,6.858-5.837,12.453-5.507a25.012,25.012,0,0,1,10.489,3.038c.4.247,1.448.9,1.009,1.634-.525.874-2.229,1.741-5.2,3.2-4.057,1.992-9.614,4.719-10.16,7.644a3.115,3.115,0,0,0,1.018,2.727c2.383,2.582,8.837,3.5,15.078,4.379,7.349,1.041,14.291,2.023,16.617,5.558a5.172,5.172,0,0,1,.538,4.371,118.528,118.528,0,0,1-4.313,12.3c-.81,2.049-1.51,3.819-1.934,5.171-.527,1.679-.43,2.139-.389,2.24a.861.861,0,0,0,.307-.046c1.1-.314,4.841-2.649,8.8-5.121,12.039-7.511,17.706-10.661,19.462-9.469a1.357,1.357,0,0,1,.494,1.5c-.313,1.718-1.547,4.228-2.977,7.134-2.307,4.689-5.178,10.526-3.7,12.9.5.8,1.492,1.184,3.044,1.184,3.565,0,9.747-1.379,16.291-2.839,12.41-2.768,26.475-5.905,31.932-2.154a42.725,42.725,0,0,1,7.631,7.091c3.075,3.411,5.107,5.664,8.143,4.56a12.032,12.032,0,0,0,4.422-3.278c2.3-2.343,4.671-4.766,10.278-2.313,2.653,1.161,7.659,2.319,12.5,3.439,8.851,2.048,11.7,2.826,11.591,4.209-.067.832-1.218,1.173-2.451,1.417a55.56,55.56,0,0,1-6.519.714c-10.9,1.893-26.57.244-41.727-1.351-16.654-1.752-33.874-3.565-44.789-.708q-2.094.715-4.071,1.394c-9.25,3.171-16.556,5.675-22.086,6.929-6.083,1.379-9.666,1.124-11.618-.827-2.993-2.994-11.116-9.667-21.863-6.98-1.8.451-5.281-.381-9.682-1.435-6.307-1.51-14.156-3.39-20.843-2.5-2.361.314-3.8,2.552-5.313,4.921-1.683,2.627-3.423,5.343-6.6,5.343h-.06C13.88,246.584.506,241.432.372,241.38a.585.585,0,0,1,.424-1.09c.132.051,13.313,5.127,25.048,5.252,2.572.027,4.074-2.319,5.666-4.8s3.244-5.063,6.143-5.449c6.9-.919,14.868.988,21.269,2.521,4.078.976,7.6,1.819,9.126,1.438,11.327-2.832,19.839,4.153,22.973,7.287,1.636,1.636,4.885,1.794,10.533.514,5.469-1.24,12.749-3.736,21.965-6.895q1.988-.682,4.093-1.4l.041-.012c11.12-2.918,28.459-1.093,45.228.671,15.092,1.588,30.7,3.23,41.435,1.357.02,0,.041-.006.061-.007,5.521-.368,7.229-.822,7.757-1.068a13.491,13.491,0,0,0-3.244-1.183c-2-.561-4.566-1.156-7.288-1.786-4.893-1.132-9.952-2.3-12.7-3.507-4.868-2.129-6.68-.28-8.975,2.061a13.135,13.135,0,0,1-4.857,3.558c-3.777,1.373-6.263-1.384-9.411-4.875a41.774,41.774,0,0,0-7.425-6.911c-5.038-3.463-19.442-.25-31.015,2.331-6.9,1.538-12.851,2.867-16.546,2.867-1.962,0-3.32-.584-4.036-1.735-1.822-2.926,1.081-8.828,3.642-14.035a34.492,34.492,0,0,0,2.876-6.827.588.588,0,0,0,0-.323c-.027-.025-.76-.613-6.48,2.482-3.565,1.93-7.891,4.629-11.709,7.01-4.382,2.734-7.844,4.894-9.1,5.253a1.352,1.352,0,0,1-1.487-.275c-.883-.975,0-3.354,2.095-8.643a117.6,117.6,0,0,0,4.272-12.177,4,4,0,0,0-.386-3.42c-2.036-3.094-9.035-4.085-15.8-5.043-6.741-.954-13.107-1.856-15.773-4.743a4.252,4.252,0,0,1-1.308-3.734c.653-3.5,6.276-6.261,10.794-8.479a26.023,26.023,0,0,0,4.5-2.51c-1.1-.891-6.262-3.221-11.675-3.176-4.563.041-7.957,1.727-10.086,5.01-.2.307-.439.642-.693,1-2.207,3.085-5.9,8.249-.464,17.915,1.753,3.116,6.9,8.086,11.447,12.471,6.693,6.459,9.181,9.033,8.748,10.446-.874,2.851-3.026,4.648-6.579,5.494a43.636,43.636,0,0,1-10.151.628c-1.89-.024-3.675-.047-5.334.046-5.207.289-9.427,3.3-12.818,5.714-2.61,1.861-4.5,3.205-6.055,2.725A2.167,2.167,0,0,1,37.6,232.03c-.66-1.753,1.074-4.567,3.7-8.827,2.72-4.416,6.446-10.464,8.387-17.259.593-2.074-.664-7.442-1.773-12.177s-2.06-8.8-1.657-10.728c1.1-5.27-1.1-11-2.873-15.6-1.127-2.928-2.1-5.456-2.134-7.449a5.621,5.621,0,0,1,2.7-5,12.932,12.932,0,0,1,3.97-1.616c.182-.047.387-.1.467-.129,1.131-.761,2.791.1,5.288,1.4a39.2,39.2,0,0,0,8.193,3.422c5.116,1.365,8.512.157,12.444-1.242,1.266-.45,2.575-.916,4-1.315a9.036,9.036,0,0,1,3.849-.274c.047-1.969.125-4.426.236-7.429.3-8.21.806-19.32,1.339-31.083.671-14.809,1.365-30.122,1.785-42.3.218-6.341.34-11.176.37-14.756a2.591,2.591,0,0,1-1.416-1.028,9.222,9.222,0,0,1-.606-3.877c.022-1.344.214-3.049,1-3.537.333-.206,1-.382,1.759.75.179.269.46.69.432,6.818.214.048.452.092.715.131.03-.671.054-1.2.072-1.58.011-.224.019-.394.025-.509q0-.091.008-.137a.587.587,0,1,1,1.173.022c0,.185.128.827,1.483,2.367l.193-.006a11.172,11.172,0,0,1-.049-1.393c.009-1.069.081-2.476.158-3.966.041-.8.084-1.625.118-2.429a4.87,4.87,0,0,0-2.954-1.435c-.629,0-1.5-.072-1.842-.7-.354-.654.11-1.366.521-1.994a6.034,6.034,0,0,0,.369-.615,9.5,9.5,0,0,1-1.9-.836c-.912-.533-1.3-1.017-1.233-1.524.119-.852,1.315-.852,1.765-.852a13.021,13.021,0,0,1,3.965.379,3.4,3.4,0,0,1,2.427,2.9,24.628,24.628,0,0,1,.078,4.167,32.689,32.689,0,0,1,2.41,2.624,10.039,10.039,0,0,0,2.053,2.074,1.082,1.082,0,0,1,.738.842c.1.719-.607,1.288-1.5,2.009-.552.444-1.385,1.116-1.45,1.506a2.586,2.586,0,0,0,.628,1.948,1.623,1.623,0,0,0,1.081.627,9.268,9.268,0,0,0,.978-2.811c.543-2.14,1.012-3.988,2.238-4.163.343-.049,1.008.041,3.352,1.076,1.8.8,3.863,1.827,5.272,2.551,1.816.933,3.663,1.928,5.068,2.731.235.134.448.258.642.371a41.9,41.9,0,0,1,.133-8.941c-1.326-4.9-2.151-10.2,1.05-15.218,1.213-1.9,2.621-4.294,2.751-5.964a2.332,2.332,0,0,0-1.635-2.374c-.733-.163-1.817.478-2.865,1.1-1.464.866-3.124,1.848-4.681,1.2a9.116,9.116,0,0,1-5.192-6.139,31.79,31.79,0,0,1-1.094-7.72,17.077,17.077,0,0,0-.458-3.9,4.048,4.048,0,0,1-.269-1.457,2.021,2.021,0,0,1-1.037.837.67.67,0,0,1-.648-.263c-.259-.354-.163-.87.353-1.9a1.6,1.6,0,0,1,1.2-1,1.4,1.4,0,0,1,.2-.01,16.369,16.369,0,0,0,.9-2.173c1.392-4.177,6.417-6.245,14.533-5.983a13.845,13.845,0,0,1,3.325.465,2.661,2.661,0,0,1,.488-1.241c.979-1.341,3.239-1.784,6.717-1.314A12.027,12.027,0,0,1,136.35,5.5a13.743,13.743,0,0,1,1.1,11.491c-.378,1.211-.681,2.216-.919,3.053a8.337,8.337,0,0,1,2.006,2.362A14.138,14.138,0,0,1,153,16.13c5.7.778,9.817,5.068,12.265,8.53,2.8,3.965,4.3,8.064,4.3,9.5,0,1.868-3.019,3.574-5.531,4.441a27.9,27.9,0,0,1,1.577,9.99c0,.161,0,.314,0,.46,0,1.805-3.071,2.938-6.322,4.137a16.029,16.029,0,0,0-4.077,1.851,2.291,2.291,0,0,0-.109,1.006,5.9,5.9,0,0,1,2.46-.6c3.193-.1,5.592,3.153,7.131,9.658a85.739,85.739,0,0,1,1.741,13.3c.028.424.054.808.075,1.047a16.98,16.98,0,0,0,5.639-1.905c.866-.421,1.658-.855,2.359-1.287-.809-3.779-2.2-9.041-3.415-13.612-1-3.769-1.943-7.33-2.6-10.123-1.04-4.437-.933-5.2-.735-5.593.628-1.256,1.887-2.723,3.368-2.723h0c.708,0,1.727.351,2.564,2.025.822,1.644,2.394,7.507,3.656,13.638.877,4.26,2.237,11.719,1.49,13.809a7.649,7.649,0,0,1-3.018,3.126,14.886,14.886,0,0,1,.483,4.463c-.2,1.047-1.38,2.1-3.619,3.209a56.456,56.456,0,0,1-11.043,3.71c-2.021.482-6.851,1.538-8.045.942a4.893,4.893,0,0,1-1.552-2.355,5.021,5.021,0,0,1-.589,2.352c.21.739.427,1.528.642,2.358,1.037,4,.159,7.828-.857,12.258a72.917,72.917,0,0,0-1.687,9.352c-.9,9.042-.947,17.462,1.622,31.479,2.162,11.795.013,26.252-.693,31-.117.787-.227,1.531-.228,1.677v2.156c.556-.088.9-.165.914-.168a.585.585,0,0,1,.7.428c0,.012.313,1.247.753,2.525.736,2.142,1.19,2.55,1.285,2.616l.411,0c6.455-.072,10.837.335,13.023,1.209,1.913.765,3.517,3.142,5.214,5.659,1.589,2.355,3.232,4.791,5.079,5.768,1.567.829,5.207.829,9.061.829,5.445,0,11.616,0,14.954,2.225,3.887,2.591,4.478,5.384,5.225,8.919a37.958,37.958,0,0,0,1.743,6.247c1.658,4.281,4.378,4.384,7.257,4.492a9.515,9.515,0,0,1,4.839,1.04c3.178,1.986,7.693,6.952,10.989,10.578.616.678,1.2,1.318,1.694,1.852.789.85,4.122,2.182,23.042,4.966,1.775.261,5.087-.155,8.594-.6,4.652-.585,9.463-1.19,12.418-.527,3.142.7,7.985,3.642,13.112,6.752,5.393,3.271,10.969,6.654,14.549,7.383,4.184.852,9.4.081,14.927-.735,6.2-.916,12.611-1.863,17.707-.386a48.906,48.906,0,0,1,9.831,4.2,53.318,53.318,0,0,0,8.777,3.9c11.038,3.617,12.868,6.684,14.2,8.924.884,1.481,1.468,2.459,4.506,3.194,5.362,1.3,12.645,2.005,19.689,2.691,7.188.7,13.977,1.361,18.684,2.6,4.882,1.28,7.516,4.305,9.841,6.975,2.046,2.349,3.978,4.569,7.172,5.38,2.221.564,9.87.991,16.618,1.366,6.477.361,12.07.672,13.641,1.086,7.151,1.882,19.09,9.714,19.595,10.047a.585.585,0,0,1-.322,1.073M78.924,218.383h0Zm61.127-39.766a17.389,17.389,0,0,1-1.639,1.128c-1.345.879-3.377,2.207-5.025,3.507-2.56,2.021-2.731,2.829-2.723,3.028,0,.042.005.12.2.226,2.227,1.2,13.118.463,17.138-1.158.9-.364,1.062-.629,1.08-.666V180.74a13.714,13.714,0,0,1-6.394-.627,10.609,10.609,0,0,1-2.639-1.5m-14.814-9.166c3.4,0,5.487,1.9,7.7,3.914a32.542,32.542,0,0,0,2.655,2.249c.8.586,1.464.742,1.978.466.7-.378,1.285-1.592,1.634-3.417a36.358,36.358,0,0,0,.345-8.183c-.335-7.055-2.43-14.893-4.113-21.192-.64-2.4-1.245-4.657-1.69-6.628-.922-4.085-3.854-14.761-6.4-23.717a55.82,55.82,0,0,1-5.9,6.366c-1.8,1.785-3.67,3.63-4.823,5.03a17.035,17.035,0,0,1-2.654,2.764,36.052,36.052,0,0,1,.918,4.214c.953,5.719,6.3,24.9,7.414,27.806a3.941,3.941,0,0,1,.191,3.137c1,1.252,1.573,5.317,1.065,7.229.512-.024,1.067-.037,1.688-.037m-23.393,3.017c.06.06.506.407,2.656.412h.05a59.861,59.861,0,0,0,10.785-1.343q.712-.147,1.345-.291c-.931.044-2.011.072-3.308.072-1.935,0-4.005.143-6.008.281-2.258.156-4.009.265-5.293.215a.949.949,0,0,0-.226.653m10.243-7.873c-.4,0-.562.156-.741.559-.475,1.071-2.349,2.13-4.517,3.355a38.077,38.077,0,0,0-3.492,2.144c1.146-.026,2.514-.12,3.946-.219,2.022-.14,4.113-.284,6.088-.284a56.314,56.314,0,0,0,7.112-.4c.509-.056,1.008-.112,1.534-.159a1.253,1.253,0,0,0,.356-.254,9.081,9.081,0,0,0,.03-3.656,8.306,8.306,0,0,0-.685-2.463,10.249,10.249,0,0,1-4.025,1.567,9.946,9.946,0,0,1-4.512-.036,6.512,6.512,0,0,0-1.094-.156m-11.6,5.756a2.122,2.122,0,0,0,1.079.263,17.023,17.023,0,0,1,3.51-2.454l-.272.084c-1.669.513-3.746,1.151-4.205,1.873a.76.76,0,0,0-.111.235M94.9,159.373c2.493,0,5.713.287,11.276,2.921,2.411,1.142,3.454,2.1,3.381,3.117,0,.013,0,.026,0,.039a2.437,2.437,0,0,0,.724-.772c.689-1.548,1.928-1.308,3.127-1.075a8.814,8.814,0,0,0,4.021.046c.495-.116.937-.231,1.33-.346-2.631.164-6.121-.135-7.937-2.446-1.423-1.811-5.029-10.744-7.856-18.632-1.377-3.841-5.844-16.632-5.529-19.942.2-2.113,3.849-9.113,10.841-20.806,5.179-8.661,10.368-16.83,10.42-16.911a.584.584,0,0,1,.664-.245c.113.034,11.313,3.436,15.769,2.545l.226-.047c-.69-.206-1.68-.442-2.539-.648a50.484,50.484,0,0,1-5.924-1.676c-.944-.36-1.808-.794-1.737-1.533a.864.864,0,0,1,.294-.579c-3.886.711-5.426.909-5.979.725a1.015,1.015,0,0,1-.609-.532c-.339-.706.056-1.775.711-3.545a33.025,33.025,0,0,0,1.431-4.6,3.374,3.374,0,0,1-.565.473c-1.88,1.216-6.169.29-12.749-2.753A82.443,82.443,0,0,1,96.269,65.8a54.945,54.945,0,0,1-6.248-5.536c-.353,0-.737-.017-1.125-.043-.072,1.656-.165,3.815-.271,6.281-.546,12.684-1.561,36.294-2.57,56.649-.892,18-1.479,27.535-1.885,32.63a20.43,20.43,0,0,1,3.348,1.8,11.157,11.157,0,0,0,3.4,1.646,13.492,13.492,0,0,0,2.952.159c.332-.006.674-.012,1.031-.012m-46.492-6.134h0m38.65-93.247c-.031,3.193-.135,7.7-.353,14.085-.418,12.24-1.12,27.726-1.8,42.7-.485,10.7-.978,21.578-1.294,29.9.346-5.671.776-13.5,1.308-24.274,1-20.188,2-43.454,2.536-55.953.111-2.572.2-4.725.274-6.35q-.354-.05-.672-.113m33.11,27.662a18.673,18.673,0,0,0,4.374,3.467,21.669,21.669,0,0,0,13.2,2.716c6.406-.641,10.812-2.369,12.448-4.874-.278-.96-.543-1.827-.778-2.583a8.846,8.846,0,0,1-3.318,3.63,15.91,15.91,0,0,1-7.557,2.2c-7.267.485-14.436-2.77-17.88-4.334l-.489-.222m-.991-1.665a18.115,18.115,0,0,1,1.964.823c3.358,1.525,10.345,4.7,17.319,4.232a14.769,14.769,0,0,0,7.006-2.017,7.607,7.607,0,0,0,2.967-3.312,5.391,5.391,0,0,0,.382-1.23c-.138-.439-.249-.8-.328-1.087-.139-.5-.3-1.074.193-1.335a.644.644,0,0,1,.2-.07l-.076-.123a28.979,28.979,0,0,1-2.8-5.646c-.5-.151-1-.309-1.475-.465-4.8-1.584-5.067-2.245-5.18-2.527-.023-.057-.047-.125-.072-.2-6.792-2.237-8.184-2.871-8.334-3.624-.038-.19-.09-.4-.146-.632-.244-1-.5-2.036,0-2.663a1.155,1.155,0,0,1,.955-.429c.559,0,3.333.135,6.386.442a8.518,8.518,0,0,1,.016-1.569,1.045,1.045,0,0,1,.441-.709c.618-.445,1.866-.452,3.655-.224-2.991-11.052-6.782-26.734-6.428-32.756a18.508,18.508,0,0,1,.212-1.913c-.209-.01-.424-.025-.645-.045q-.972.365-1.94.72c-2.607.962-5.143,1.9-7.418,2.989a21.552,21.552,0,0,1,4.627.03c2.477.3,4.066,1.112,4.859,2.491a6.44,6.44,0,0,1,.566,3.624c-.013.267-.025.519-.025.748a.994.994,0,0,1-.393.8c-.939.729-3.377.209-8.333-1.064a46.688,46.688,0,0,0-4.786-1.073c.255.182.572.391.854.576,1.555,1.022,3.9,2.566,5.144,4.907,1.249,2.359-.1,10.191-1.637,16.182a60.1,60.1,0,0,1-4.423,12.453,25.73,25.73,0,0,1-1.819,7.144,10.706,10.706,0,0,0-.766,2.569,76.676,76.676,0,0,0,8.382-1.342c1.887-.357,3.67-.695,5.027-.915.739-.12,1.288-.2,1.678-.229.434-.038,1.088-.1,1.263.445.187.582-.454.881-.762,1.025a25.545,25.545,0,0,1-5.624,1.389,26.453,26.453,0,0,0-3.293.7,6.423,6.423,0,0,0,.735.323,49.625,49.625,0,0,0,5.78,1.631c3.034.725,4.17,1,4.154,1.841-.013.705-.9.941-1.883,1.138-4.28.856-13.755-1.81-15.913-2.446l-.267.423m30.883-8.812c.6,2.032,1.257,4.167,1.878,5.993,1.429,4.2,2.031,4.821,2.181,4.911.434.194,3.069-.019,7.553-1.108a52.427,52.427,0,0,0,10.86-3.735c2.21-1.156,2.568-1.915,2.619-2.188a13.039,13.039,0,0,0-.4-3.581c-.638.377-1.254.7-1.768.961-2.257,1.131-5.3,2.292-6.652,2.172-.764-.068-.924-.544-.958-.745-.031-.186-.058-.579-.111-1.38a84.706,84.706,0,0,0-1.713-13.106,21.454,21.454,0,0,0-2.372-6.336c-1.053-1.671-2.225-2.464-3.586-2.422a4.675,4.675,0,0,0-2.395.709,63.441,63.441,0,0,0,1.876,8.77c.857,3.149,1.87,6.313,2.78,8.68,1.48,3.853,2.143,4.22,2.171,4.234.831.415.859,1,.833,1.231-.066.58-.63,1.053-1.508,1.266-1.656.4-5.2-.035-7.983-4.209-3.135-4.7-3.752-13.325-1.295-18.088a7.637,7.637,0,0,1,1.9-2.431c-.134-1.717.114-2.269.4-2.554.741-.741,2.487-1.385,4.509-2.131a36.181,36.181,0,0,0,3.964-1.631c1.438-.753,1.594-1.236,1.594-1.409,0-.148,0-.3,0-.467a26.865,26.865,0,0,0-1.528-9.642,8.473,8.473,0,0,1-1.259.242c-1.2.118-1.546-.327-1.624-.721a7.831,7.831,0,0,1-.084-.862,16.549,16.549,0,0,0-1.043-5.213,7.7,7.7,0,0,0-4.988-4.649,14.978,14.978,0,0,0-11.083,1.285c-1.893,1.024-3.216,2.308-3.538,3.436-.169.593-.27,3.311,2.452,15.71,1.537,7,3.35,14.17,3.823,15.588a1.537,1.537,0,0,0,.235.447l.222.04a27.511,27.511,0,0,0,3.41.508c.294,0,.983,0,1.047.6s-.611.746-.834.794c-.873.19-3.155.317-4.444-.864-.446-.081-.9-.162-1.357-.238q.289,1.052.563,2.026c2.17.519,2.764,1.049,2.987,1.495a58.693,58.693,0,0,1,1.823,5.762l.286.977a6.435,6.435,0,0,1,.949.482c.153.1.618.412.486.9a.688.688,0,0,1-.693.494,1.774,1.774,0,0,1-.19,0m-.049,7.214.127.4c.2.642.45,1.422.721,2.315a4.239,4.239,0,0,0-.337-2.005c-.159-.387-.32-.739-.481-1.067-.006.116-.016.234-.03.355m-2.589-7.761a27.643,27.643,0,0,0,2.381,4.627c.205.334.407.661.606,1-.487-1.5-1.025-3.263-1.627-5.29-.411-.091-.873-.207-1.359-.339m6.718-18.4a7.145,7.145,0,0,0-1.027,1.517A16.6,16.6,0,0,0,151.8,68.3a18.133,18.133,0,0,0,2.546,8.348c2.423,3.635,5.239,3.834,6.045,3.809a2.308,2.308,0,0,0,1.254-.323,1.02,1.02,0,0,0-.136-.08c-.383-.192-.951-.7-1.951-2.945-.631-1.416-1.347-3.338-2.07-5.559a95.466,95.466,0,0,1-3.254-12.742q-.049-.3-.089-.58m14.672-10.793c-.052.2-.06,1.1.865,5.014.65,2.749,1.57,6.221,2.544,9.9,1.444,5.447,2.614,9.931,3.335,13.218a5.932,5.932,0,0,0,2.179-2.278c.462-1.292-.126-6.342-1.534-13.18-1.224-5.946-2.787-11.811-3.557-13.351-.314-.629-.833-1.379-1.518-1.379-.838,0-1.8,1.033-2.313,2.06M146.524,74.188c.583.2,1.122.391,1.606.571l-.03-.1c-.785-2.683-1.463-5-1.747-5.568-.011-.021-.189-.319-1.573-.711.384,1.35.732,2.546,1.027,3.54.248.833.486,1.586.717,2.271M94.889,63.212c.775.648,1.5,1.219,2.081,1.656a82.407,82.407,0,0,0,11.208,6.219c5.93,2.742,10.166,3.775,11.623,2.832a5.818,5.818,0,0,0,1.533-1.963c0-.014,0-.029,0-.043.14-3.219-2.1-7.114-4.073-10.55A34.885,34.885,0,0,1,114.72,56.4c-.061,1.14-.083,2.22-.066,3.2a12.609,12.609,0,0,0,.38,3.432c.512.349.585.469.642.563a.618.618,0,0,1-.017.691.7.7,0,0,1-.785.228,1.227,1.227,0,0,1-.79-.71c-1.158-.736-3.72-2.173-6.765-3.735-4.643-2.381-7.3-3.457-7.823-3.457h0c-.031.01-.251.111-.56.884a21.071,21.071,0,0,0-.707,2.407c-.524,2.063-.937,3.693-2.07,3.693a2.373,2.373,0,0,1-1.265-.382m45.344,8.9,1.448.472c1.219.4,2.388.778,3.459,1.135-.148-.462-.3-.951-.453-1.47-.342-1.151-.754-2.57-1.21-4.187-.979-.2-2.29-.417-4.042-.622a42.06,42.06,0,0,0,.8,4.672m-8.163-3.049c.577.487,3.8,1.608,6.871,2.624-.265-1.229-.543-2.9-.7-4.378-3.062-.315-5.949-.459-6.487-.459a.376.376,0,0,0-.045,0,4.827,4.827,0,0,0,.23,1.644c.048.2.094.387.133.567M114.982,53.127c.218.8.456,1.627.7,2.471a28.768,28.768,0,0,0,2.59,5.182c1.667,2.9,3.515,6.116,4.069,9.127a69.417,69.417,0,0,0,3.431-10.359c1.894-7.388,2.608-13.7,1.737-15.344-1.1-2.076-3.3-3.521-4.753-4.477-1.2-.786-1.855-1.219-1.817-1.863a.877.877,0,0,1,.543-.739c.705-.352,2.328.011,6.139.99,1.655.425,3.367.865,4.777,1.126a5.993,5.993,0,0,0,2.489.173c0-.226.014-.461.026-.707a5.457,5.457,0,0,0-.412-2.986c-.6-1.037-1.9-1.663-3.985-1.913a21.02,21.02,0,0,0-7.635.554,15.764,15.764,0,0,0-3.033,2.519c-2.046,2.232-3.8,7.745-4.694,14.747q-.1.753-.175,1.5m17.042,15.895h0Zm7.3-2.771.149.017c1.477.171,2.678.349,3.654.531q-.262-.942-.539-1.952c-.349-.05-.688-.092-1.01-.126a4.629,4.629,0,0,0-2.27.057,8.721,8.721,0,0,0,.016,1.473m4.19-2.445q.432.069.9.149c-.553-1.773-2.31-8.746-3.8-15.536-2.043-9.307-2.862-14.785-2.434-16.282.413-1.445,1.91-2.955,4.106-4.143a16.84,16.84,0,0,1,5.586-1.823,14.749,14.749,0,0,1,5.713.257,14.54,14.54,0,0,0-2.819-1.342,9.334,9.334,0,0,0-7.79.512c-1.115.608-2.29,1.164-3.5,1.684a2.181,2.181,0,0,1-.558.942,2.757,2.757,0,0,1-1.689.7,17.338,17.338,0,0,0-.235,2.007c-.352,5.976,3.529,21.879,6.52,32.87M91.561,60.179q.167.169.35.348c.743.73,1.539,1.452,2.309,2.116q-.04-.045-.08-.091a3.759,3.759,0,0,1-.889-2.9c.138-.829,1.018-1.539,1.869-2.225a8.526,8.526,0,0,0,1-.883,9.6,9.6,0,0,1-2.441-2.372c-.482-.565-1.019-1.195-1.59-1.795-.023.467-.047.94-.071,1.409a40.587,40.587,0,0,0-.1,5.3.608.608,0,0,1,.22.489.632.632,0,0,1-.538.589l-.04.009m-2.614-1.122.053,0-.05-.067,0,.063m-3.523-6.728a6.456,6.456,0,0,0-.385,2.561,8.163,8.163,0,0,0,.454,3.177,1.014,1.014,0,0,0,.408.339c.011-4.584-.166-5.58-.251-5.793a1.919,1.919,0,0,0-.226-.284m30.281-23.841a2.344,2.344,0,0,1,.51.055,3.473,3.473,0,0,1,2.547,3.605c-.149,1.918-1.565,4.364-2.931,6.5a13.066,13.066,0,0,0-2.013,8.137,23.416,23.416,0,0,0,.4,3.11c.508-3.355,1.583-8.744,3.583-12.159a.581.581,0,0,1-.38-.041c-.5-.229-.337-.7-.184-1.163a3.028,3.028,0,0,1,.975-1.3,25.07,25.07,0,0,1,6.242-6.556c2.813-1.992,6.428-1.515,9.333-1.132.495.065.982.13,1.444.177q.581-.219,1.16-.443a16.97,16.97,0,0,1,1.443-3.685,6.928,6.928,0,0,0-1.646-2.3c-.517,2-.513,2.667-.333,3.06.48.422.763.812.745,1.125a.6.6,0,0,1-.423.542c-.457.138-.781-.292-.918-.476-.036-.047-.07-.092-.1-.136-.074-.095-.142-.186-.2-.279a15.722,15.722,0,0,0-3.874-2.19,6.768,6.768,0,0,1-2.936-2.47,20.935,20.935,0,0,0-2.357,4.331c-.944,2.1-1.433,3.121-2.21,3.228a.928.928,0,0,1-.859-.366c-1.524-1.829-.619-3.664.2-4.886a16.95,16.95,0,0,0,2.229-9.419c-.13-2.6-1.854-4.175-3.113-5.323-.9-.817-1.743-1.589-1.225-2.452a1.091,1.091,0,0,1,.229-.27l-.393-.432a.583.583,0,0,1-.1-.142,3.827,3.827,0,0,1-.246-.748,11.84,11.84,0,0,0-3.433-.547c-5.262-.17-11.856.591-13.386,5.184a17.954,17.954,0,0,1-.826,2.039c1.641-1.1,4.98-1.628,10.669-2.339,3.2-.4,5.572.166,7.059,1.679,2.578,2.624,1.879,7.521,1.5,10.151-.587,4.112-2.448,5.088-3.453,5.017a.948.948,0,0,1-.967-.911c0-.045,0-.1,0-.174.046-2.925-.623-4.723-1.986-5.342-.445-.2-.7-.2-.775-.131-.26.216-.238,1.243-.044,2.017a.585.585,0,0,1-.941.591,35.419,35.419,0,0,0-5.251-3.19,17.765,17.765,0,0,1-4.591-4.177c-.385-.444-.835-.963-1.254-1.392a2.25,2.25,0,0,0,.154,1.366,17.4,17.4,0,0,1,.524,4.224c.251,4.542.595,10.762,5.57,12.845,1.015.425,2.346-.363,3.634-1.125a6.938,6.938,0,0,1,3.2-1.288M87.223,48.6a2.252,2.252,0,0,0,.787.093,5.177,5.177,0,0,1,3,1.142,18.78,18.78,0,0,0-.091-3.021c-.365-2.192-2.229-2.3-5.24-2.3-.094,0-.176,0-.249.005a7.94,7.94,0,0,0,2.037.942,1.03,1.03,0,0,1,.739.624c.212.568-.173,1.157-.545,1.727a4.216,4.216,0,0,0-.444.791m81.591-1.181h0m-7.663-9.386a4.705,4.705,0,0,0,1.369-.2q-.365-.98-.826-2.047a18.829,18.829,0,0,0-1.172-2.255,20.55,20.55,0,0,1,.589,3.987c.014.2.026.381.039.518M147.319,23.316a11.725,11.725,0,0,1,3.818.664,18.6,18.6,0,0,1,6.985,4.6,22.75,22.75,0,0,1,4.646,6.747q.491,1.134.875,2.172a14.416,14.416,0,0,0,3.264-1.58c.946-.642,1.489-1.282,1.489-1.756,0-1.095-1.364-4.979-4.081-8.824-2.313-3.273-6.181-7.326-11.468-8.047a13.4,13.4,0,0,0-10.612,2.7,13.655,13.655,0,0,0-3.112,3.692,8.53,8.53,0,0,1,.445,1.909q.021.184.031.357c.97-.432,1.912-.889,2.81-1.379a10.163,10.163,0,0,1,4.911-1.256M129.8,28.363a7.854,7.854,0,0,0-4.665,1.264,22.685,22.685,0,0,0-4.457,4.225q.664-.262,1.433-.488l.292-.083A54.953,54.953,0,0,1,132.861,28.6a24.659,24.659,0,0,0-3.066-.236m-3.5-12.925a17.365,17.365,0,0,1-2.409,7.986c-.948,1.422-1.069,2.4-.4,3.328a16.46,16.46,0,0,0,1.23-2.43,18.894,18.894,0,0,1,2.8-4.913,14.082,14.082,0,0,1-1.227-3.971m12.042,9.8a15.874,15.874,0,0,0-.563,1.489q.332-.135.662-.274a4.2,4.2,0,0,0-.027-.727q-.029-.251-.072-.488M114.853,17.4a2.719,2.719,0,0,1,1.107.279c1.807.821,2.706,2.945,2.673,6.315a1.077,1.077,0,0,0,.352-.151c.393-.247,1.348-1.116,1.739-3.854.347-2.431.994-6.955-1.179-9.167-1.219-1.24-3.264-1.691-6.081-1.339-4.831.6-8.521,1.133-10.071,2.09.419.422.867.939,1.364,1.512A16.663,16.663,0,0,0,109.012,17c2.089,1.107,3.475,1.957,4.326,2.521a2.271,2.271,0,0,1,.615-1.8,1.363,1.363,0,0,1,.9-.314m14.165,2.261a5.664,5.664,0,0,0,2.52,2.2,23.064,23.064,0,0,1,3.051,1.571,17.1,17.1,0,0,1,.6-2.927,8.133,8.133,0,0,0-.839-.484c-1.886-.944-4.068-1.1-5.307-.376l-.025.015m2.007-1.635a8.766,8.766,0,0,1,3.848.95q.333.166.645.355c.225-.775.495-1.665.815-2.691a12.583,12.583,0,0,0-.969-10.514,10.9,10.9,0,0,0-8.091-4.786c-2.929-.4-4.922-.1-5.612.839a1.616,1.616,0,0,0-.293.976,4.952,4.952,0,0,1,1.8,1.35,3.717,3.717,0,0,1,.573.972c1.741.808,3.659,2.557,3.49,4.412-.026.285-.44,5.186,1.219,8.748a5.124,5.124,0,0,1,2.57-.61M123.306,7.624A9.219,9.219,0,0,1,126,11.54c0-.88.055-1.519.076-1.755.1-1.068-1.047-2.188-2.079-2.841a1.871,1.871,0,0,1-.021.2.584.584,0,0,1-.666.476m-1.34-1.282c.045.053.1.111.157.172Z" transform="translate(0.001 -0.003)" fill="#fff"/>
    </g>
  </g>
</svg>